<svg id="svg" xmlns="http://www.w3.org/2000/svg" xmlns:xlink="http://www.w3.org/1999/xlink" width="400" height="73.89380530973452" viewBox="0, 0, 400,73.89380530973452"><g id="svgg"><path id="path0" d="M34.513 0.102 C 11.606 1.837,-4.303 23.517,0.983 45.796 C 7.505 73.287,42.514 83.294,64.044 63.822 C 68.253 60.015,72.275 53.895,73.830 48.931 C 73.976 48.464,74.149 48.083,74.216 48.083 C 74.282 48.083,74.336 53.250,74.336 59.565 L 74.336 71.047 74.776 71.654 C 75.579 72.762,75.155 72.714,84.029 72.714 L 91.967 72.714 92.517 72.340 C 93.752 71.501,93.658 73.094,93.658 53.017 C 93.658 42.644,93.713 35.247,93.789 35.275 C 93.862 35.302,100.010 43.322,107.451 53.097 C 114.892 62.872,121.215 71.160,121.502 71.513 C 122.531 72.784,122.035 72.713,129.882 72.713 L 136.829 72.714 137.416 72.289 C 138.384 71.587,138.496 71.184,138.496 68.377 C 138.496 67.031,138.538 65.929,138.590 65.929 C 138.642 65.929,139.256 66.287,139.955 66.725 C 146.980 71.129,154.348 73.388,162.683 73.696 C 177.633 74.247,188.647 66.877,190.708 54.941 L 190.963 53.466 191.241 53.958 C 197.801 65.566,207.638 72.191,220.501 73.665 C 238.232 75.697,255.155 65.588,260.916 49.522 C 261.199 48.732,261.480 48.085,261.541 48.084 C 261.602 48.083,261.652 53.250,261.652 59.565 L 261.652 71.048 261.987 71.545 C 262.172 71.819,262.547 72.194,262.820 72.378 L 263.318 72.714 271.334 72.714 L 279.350 72.714 279.950 72.172 C 281.058 71.171,280.973 72.758,280.973 53.031 C 280.973 43.252,281.023 35.254,281.084 35.258 C 281.145 35.262,287.334 43.339,294.838 53.208 C 302.341 63.077,308.708 71.408,308.986 71.721 C 309.903 72.755,309.564 72.714,317.221 72.714 L 324.131 72.714 324.633 72.344 C 325.798 71.484,325.729 72.081,325.811 62.244 L 325.885 53.466 326.729 55.053 C 336.381 73.189,360.327 79.221,380.977 68.717 C 389.036 64.618,390.562 62.212,390.671 53.439 L 390.732 48.544 392.379 47.637 C 397.979 44.553,400.951 41.626,399.668 40.457 C 399.013 39.860,398.776 39.823,395.621 39.823 C 388.244 39.823,381.146 38.165,373.993 34.771 C 371.666 33.667,371.909 32.652,371.865 43.636 L 371.827 52.947 370.776 53.476 C 365.424 56.172,358.025 56.483,352.711 54.237 C 339.273 48.557,338.990 26.410,352.274 19.984 C 358.187 17.123,365.931 17.978,372.158 22.180 C 374.787 23.954,375.993 24.385,378.319 24.381 C 384.329 24.372,388.979 18.658,387.740 12.802 C 386.013 4.636,369.622 -1.516,354.646 0.382 C 342.782 1.885,332.386 9.026,326.646 19.614 L 325.885 21.018 325.811 11.945 C 325.729 1.775,325.801 2.411,324.633 1.550 L 324.131 1.180 316.144 1.180 L 308.156 1.180 307.658 1.515 C 307.384 1.700,307.009 2.075,306.825 2.348 L 306.490 2.846 306.490 20.076 C 306.490 33.802,306.452 37.291,306.305 37.231 C 306.204 37.190,300.078 29.212,292.692 19.501 C 284.693 8.984,279.064 1.712,278.769 1.513 L 278.275 1.180 270.796 1.180 L 263.318 1.180 262.820 1.515 C 262.547 1.700,262.172 2.075,261.987 2.348 L 261.652 2.846 261.652 14.181 C 261.652 20.415,261.602 25.516,261.541 25.515 C 261.480 25.514,261.199 24.867,260.916 24.077 C 254.560 6.340,234.716 -3.675,215.527 1.170 C 199.131 5.309,187.316 19.967,187.316 36.168 C 187.316 37.205,187.287 38.053,187.253 38.053 C 187.218 38.053,186.503 37.373,185.664 36.541 C 181.664 32.577,177.027 30.402,166.698 27.645 C 158.252 25.391,155.988 24.338,155.603 22.485 C 154.291 16.166,165.919 16.559,176.257 23.183 C 179.879 25.504,179.424 25.783,184.840 17.919 C 190.235 10.084,190.168 10.613,186.136 7.725 C 170.366 -3.570,148.058 -2.085,139.522 10.827 L 138.569 12.268 138.496 7.498 C 138.388 0.531,139.383 1.180,128.803 1.180 L 120.841 1.180 120.254 1.605 C 119.090 2.448,119.174 1.008,119.174 20.204 C 119.174 30.567,119.120 37.321,119.038 37.291 C 118.964 37.264,113.048 29.543,105.891 20.133 C 98.735 10.723,92.646 2.734,92.361 2.380 C 91.331 1.105,91.890 1.181,83.510 1.180 C 75.213 1.180,75.576 1.136,74.776 2.240 L 74.336 2.847 74.336 14.181 C 74.336 20.416,74.282 25.516,74.216 25.516 C 74.149 25.516,73.975 25.135,73.828 24.668 C 68.910 9.048,52.422 -1.255,34.513 0.102 M50.000 17.692 C 62.108 20.705,61.864 36.914,49.530 48.907 C 35.659 62.394,17.166 60.361,17.210 45.354 C 17.254 30.241,36.200 14.259,50.000 17.692 M237.389 17.685 C 254.329 22.160,245.164 49.839,224.473 56.692 C 210.015 61.480,200.571 51.652,206.121 37.592 C 211.194 24.739,226.706 14.864,237.389 17.685 M139.422 34.919 C 142.835 39.772,148.085 42.530,159.882 45.668 C 169.498 48.227,171.591 49.332,171.575 51.842 C 171.560 54.196,170.142 55.262,166.372 55.754 C 160.423 56.531,152.885 53.983,147.036 49.218 C 144.316 47.003,144.002 47.087,140.840 50.877 C 139.687 52.261,138.687 53.392,138.619 53.392 C 138.551 53.392,138.496 48.979,138.496 43.584 C 138.496 38.190,138.523 33.776,138.557 33.776 C 138.591 33.776,138.980 34.290,139.422 34.919 " stroke="none" fill="#ffffff" fill-rule="evenodd"></path></g></svg>