<svg width="501" height="74" viewBox="0 0 501 74" fill="none" xmlns="http://www.w3.org/2000/svg">
<path d="M135.255 42.6859H134.552C133.615 42.6859 133.146 41.9827 132.911 41.2794V8.93064C132.911 7.99299 132.208 7.52417 131.27 7.52417H127.051C126.113 7.52417 125.41 8.2274 125.41 8.93064V45.2644C125.41 47.843 127.754 50.1871 130.333 49.9527H135.021C135.49 49.9527 135.959 49.4839 135.959 49.015V43.6236C136.193 43.1547 135.724 42.6859 135.255 42.6859Z" fill="white"/>
<path d="M219.878 19.7135C214.252 19.7135 210.502 22.5264 209.33 23.4641L208.626 21.3544C208.392 20.6511 207.923 20.4167 207.22 20.4167H205.11C204.172 20.4167 203.469 21.12 203.469 21.8232V48.5461C203.469 49.4838 204.172 49.9526 205.11 49.9526H209.095C210.502 49.9526 210.97 49.4838 210.97 48.5461V30.4964C211.439 29.3244 214.721 26.277 219.175 26.277C223.16 26.277 225.27 28.8556 225.27 33.5438V48.5461C225.27 49.4838 225.973 50.187 226.91 49.9526H231.13C232.067 49.9526 232.771 49.2494 232.771 48.5461V33.7782C232.536 24.8706 227.848 19.7135 219.878 19.7135Z" fill="white"/>
<path d="M444.444 43.3892C444.21 42.9204 443.976 42.686 443.741 42.4515C443.507 42.4515 443.507 42.4515 443.272 42.4515C443.038 42.4515 442.803 42.4515 442.569 42.686C441.163 43.3892 439.522 43.858 438.115 44.0924C436.943 44.0924 435.771 43.858 435.771 41.2795L436.006 26.746H443.272C444.21 26.746 444.913 26.0427 444.913 25.3395V21.8233C444.913 20.8857 444.21 20.4168 443.507 20.4168L436.006 20.1824V11.0404C436.006 10.1027 435.302 9.63391 434.599 9.63391H430.38C429.442 9.63391 428.739 10.3371 428.739 11.0404L428.504 20.1824H425.691C424.754 20.1824 424.051 20.8857 424.051 21.5889V24.8707C424.051 25.8083 424.754 26.5115 425.691 26.2771L428.739 26.5115V41.5139C428.739 45.2645 429.442 50.4215 436.474 50.4215C440.225 50.4215 444.679 48.5462 445.382 48.3118C446.085 48.0774 446.554 47.3742 446.32 46.671V46.4365L444.444 43.3892Z" fill="white"/>
<path d="M185.185 19.7135C179.794 19.7135 176.277 22.292 174.637 23.4641L173.933 21.3544C173.699 20.6511 173.23 20.4167 172.527 20.4167H170.417C169.479 20.4167 168.776 21.12 168.776 21.8232V48.5461C168.776 49.4838 169.479 49.9526 170.417 49.9526H174.402C175.809 49.9526 176.277 49.4838 176.277 48.5461V30.4964C176.746 29.3244 180.028 26.277 184.482 26.277C188.467 26.277 190.577 28.8556 190.577 33.5438V48.5461C190.577 49.4838 191.28 50.187 192.217 49.9526H196.437C197.374 49.9526 198.078 49.2494 198.078 48.5461V33.7782C197.843 24.8706 193.155 19.7135 185.185 19.7135Z" fill="white"/>
<path d="M153.305 19.7135C149.789 19.7135 146.273 20.1823 142.757 21.3544C142.053 21.5888 141.585 22.292 141.585 22.9953C141.585 22.9953 141.585 22.9953 141.585 23.2297L142.288 26.0426C142.288 26.7458 142.991 27.2147 143.694 27.4491C143.929 27.4491 143.929 27.4491 144.163 27.4491C146.976 26.7458 149.789 26.277 152.602 26.0426C154.243 26.0426 155.18 26.277 155.884 26.9803C156.821 27.9179 157.056 29.3244 156.821 32.1373C154.946 31.6685 153.071 31.4341 151.195 31.4341C143.929 31.4341 139.006 35.1847 139.006 41.045C139.006 46.9053 142.991 51.1247 148.851 51.1247C152.367 51.1247 155.18 49.9526 158.228 47.8429L158.931 49.4838C159.165 50.187 159.634 50.6558 160.337 50.6558H162.447C163.385 50.6558 164.088 49.9526 164.088 49.2494V33.5438C164.088 25.5738 163.15 19.7135 153.305 19.7135ZM157.056 41.7482C155.415 43.8579 153.071 45.2644 150.492 45.2644C148.148 45.2644 146.038 43.3891 146.038 41.045C146.038 40.8105 146.038 40.8105 146.038 40.5761C146.038 37.7632 148.382 35.8879 152.133 35.8879C154.008 35.8879 155.649 36.3567 157.29 37.06L157.056 41.7482Z" fill="white"/>
<path d="M106.892 18.0726C103.141 18.0726 99.6248 19.4791 96.8119 22.0576L96.5775 22.292L96.1087 19.7135C95.8743 19.2447 95.4054 18.7759 94.9366 19.0103H91.8893C91.186 19.0103 90.4828 19.4791 90.4828 20.4167V64.2517C90.4828 65.1894 91.186 65.6582 92.1237 65.8926H96.5775C97.7496 65.8926 98.2184 65.1894 98.2184 64.2517L98.4528 49.7182C100.797 51.1247 103.61 51.8279 106.423 51.8279C115.096 51.8279 121.894 44.5611 121.894 35.1847C121.894 25.3394 115.565 18.0726 106.892 18.0726ZM105.72 45.03C103.844 45.03 101.735 44.5611 100.094 43.6235C98.9216 43.1547 98.2184 41.9826 98.2184 40.5762V30.262C98.2184 29.5588 98.4528 28.8556 98.6872 28.3867C100.328 26.0426 103.141 24.6362 105.954 24.6362C111.111 24.6362 114.627 28.8556 114.627 34.9503C114.627 40.8106 110.877 45.03 105.72 45.03Z" fill="white"/>
<path d="M499.766 21.1199C499.062 19.9478 496.249 19.479 494.14 19.479C489.452 19.479 486.639 22.0575 485.232 23.2296L484.529 21.3543C484.294 20.6511 483.826 20.1822 483.122 20.1822H481.013C480.075 20.1822 479.372 20.8855 479.372 21.5887V48.3116C479.372 49.2493 480.075 49.7181 481.013 49.7181H484.529C485.701 49.7181 486.639 49.4837 486.639 48.3116V29.5587C488.045 27.449 490.624 26.0425 493.202 26.0425C494.14 26.0425 494.843 26.2769 495.781 26.5114C496.015 26.5114 496.249 26.7458 496.484 26.7458C496.953 26.7458 497.656 26.5114 497.89 25.8081L499.766 22.2919C500.234 22.0575 500.234 21.5887 499.766 21.1199Z" fill="white"/>
<path d="M314.815 20.4166H311.767C311.298 20.4166 310.83 20.6511 310.595 21.3543L309.892 23.464C307.313 20.8855 303.563 19.479 300.047 19.479C291.373 19.479 285.044 26.7458 285.044 36.3566C285.044 45.9675 291.608 52.9999 300.515 52.9999C303.328 52.9999 306.141 52.2966 308.72 51.1246V51.8278C308.954 53.9375 308.251 56.0472 306.61 57.4537C304.735 59.5634 301.922 60.501 298.171 60.501C295.124 60.501 292.311 59.0946 290.905 58.1569C290.67 58.1569 290.436 57.9225 290.201 57.9225C289.733 57.9225 289.498 58.1569 289.264 58.3913L287.623 61.6731C287.388 62.1419 287.388 62.8452 288.092 63.0796C289.029 63.7828 293.952 66.8301 300.047 66.8301H300.515C309.892 66.5957 316.456 60.7354 316.456 52.7655V21.8231C316.221 20.8855 315.518 20.4166 314.815 20.4166ZM308.954 42.2169C308.954 43.389 308.251 44.561 307.079 45.2643C305.438 46.2019 303.328 46.6708 301.453 46.6708C296.062 46.6708 292.311 42.4513 292.311 36.5911C292.311 30.4963 295.827 26.2769 300.984 26.2769C303.797 26.2769 306.61 27.6834 308.251 30.0275C308.72 30.4963 308.72 31.1996 308.72 31.9028L308.954 42.2169Z" fill="white"/>
<path d="M354.43 40.5762C354.196 40.3418 353.727 40.1074 353.493 40.1074C353.024 40.1074 352.555 40.3418 352.321 40.5762L351.852 41.045C350.445 42.4515 348.804 43.858 345.288 43.858C340.6 43.858 336.849 39.873 336.849 34.9503C336.615 30.2621 340.6 26.2771 345.288 26.0427H345.523C347.867 26.0427 349.976 27.2148 351.617 28.8556C351.852 29.09 352.321 29.3245 352.789 29.5589C353.258 29.5589 353.493 29.3245 353.727 29.09L356.306 26.9803C356.54 26.7459 356.774 26.2771 357.009 26.0427C357.009 25.5739 357.009 25.1051 356.774 24.8706C354.196 21.3545 349.976 19.4792 345.757 19.7136C337.084 19.7136 329.817 26.9803 329.817 35.4192C329.817 43.858 336.849 50.8903 345.757 50.8903C350.68 50.8903 354.899 48.7806 357.478 44.5612C357.946 43.858 357.712 42.9203 357.009 42.4515L354.43 40.5762Z" fill="white"/>
<path d="M374.121 19.7135C365.448 19.7135 358.884 26.5114 358.884 35.1847C358.884 44.0923 365.448 50.6558 374.121 50.6558C378.34 50.6558 382.56 49.2494 385.373 46.9053C385.841 46.6708 386.076 46.202 386.076 45.9676C386.076 45.4988 385.841 45.2644 385.607 44.7955L383.497 41.9826C383.263 41.7482 383.028 41.5138 382.56 41.5138C382.091 41.5138 381.622 41.7482 381.153 41.9826C379.278 43.3891 376.934 44.0923 374.59 44.0923C370.136 44.0923 366.62 40.8106 366.151 36.5911H386.31C387.013 36.5911 387.717 35.8879 387.717 35.1847C387.717 34.4814 387.951 33.7782 387.951 33.075C387.951 25.5738 382.091 19.7135 374.121 19.7135ZM366.385 31.6685C367.088 28.1523 370.136 25.5738 373.886 25.5738C377.403 25.5738 380.216 28.3867 380.45 31.9029L366.385 31.6685Z" fill="white"/>
<path d="M409.283 19.7135C403.657 19.7135 399.906 22.5264 398.734 23.4641L398.031 21.3544C397.796 20.6511 397.328 20.4167 396.624 20.4167H394.515C393.577 20.4167 392.874 21.12 392.874 21.8232V48.5461C392.874 49.4838 393.577 49.9526 394.515 49.9526H398.5C399.906 49.9526 400.375 49.4838 400.375 48.5461V30.4964C400.844 29.3244 404.126 26.277 408.579 26.277C412.564 26.277 414.674 28.8556 414.674 33.5438V48.5461C414.674 49.4838 415.377 50.187 416.315 49.9526H420.534C421.472 49.9526 422.175 49.2494 422.175 48.5461V33.7782C421.941 24.8706 417.253 19.7135 409.283 19.7135Z" fill="white"/>
<path d="M241.913 6.58643C239.569 6.58643 237.459 8.46172 237.459 11.0402C237.459 13.3844 239.334 15.4941 241.913 15.4941C244.257 15.4941 246.366 13.6188 246.601 11.2747C246.601 8.93054 244.726 6.82084 242.381 6.58643C242.147 6.58643 242.147 6.58643 241.913 6.58643Z" fill="white"/>
<path d="M244.257 20.4167H240.037C239.1 20.4167 238.396 21.12 238.396 21.8232V48.5461C238.396 49.4838 239.1 49.9526 240.037 49.9526H244.257C245.194 49.9526 245.898 49.2494 245.898 48.5461V21.8232C245.898 21.12 245.194 20.4167 244.257 20.4167Z" fill="white"/>
<path d="M268.401 19.7135C262.775 19.7135 259.025 22.5264 257.853 23.4641L257.149 21.3544C256.915 20.6511 256.446 20.4167 255.743 20.4167H253.633C252.696 20.4167 251.992 21.12 251.992 21.8232V48.5461C251.992 49.4838 252.696 49.9526 253.633 49.9526H257.618C259.025 49.9526 259.494 49.4838 259.494 48.5461V30.4964C259.962 29.3244 263.244 26.277 267.698 26.277C271.683 26.277 273.793 28.8556 273.793 33.5438V48.5461C273.793 49.4838 274.496 50.187 275.434 49.9526H279.653C280.591 49.9526 281.294 49.2494 281.294 48.5461V33.7782C281.059 21.3544 273.089 19.7135 268.401 19.7135Z" fill="white"/>
<path d="M462.025 19.7135C453.352 19.7135 446.788 26.5114 446.788 35.1847C446.788 44.0923 453.352 50.6558 462.025 50.6558C466.245 50.6558 470.464 49.2494 473.277 46.9053C473.746 46.6708 473.98 46.202 473.98 45.9676C473.98 45.4988 473.746 45.2644 473.511 44.7955L471.402 41.9826C471.167 41.7482 470.933 41.5138 470.464 41.5138C469.995 41.5138 469.526 41.7482 469.058 41.9826C467.182 43.3891 464.838 44.0923 462.494 44.0923C458.04 44.0923 454.524 40.8106 454.29 36.5911H474.449C475.152 36.5911 475.855 35.8879 475.855 35.1847C475.855 34.4814 476.09 33.7782 476.09 33.075C476.09 25.5738 469.995 19.7135 462.025 19.7135ZM454.524 31.6685C455.227 28.1523 458.509 25.5738 462.025 25.5738C465.541 25.5738 468.354 28.3867 468.589 31.9029L454.524 31.6685Z" fill="white"/>
<path d="M46.4136 29.3245L38.2092 31.6686C36.5683 32.1374 34.9274 32.1374 33.2865 31.6686L25.0821 29.0901C24.8477 29.0901 24.3789 29.3245 24.3789 29.5589V40.1074C24.3789 40.3418 24.6133 40.5763 24.8477 40.8107L34.9274 43.858C35.3963 44.0924 36.0995 44.0924 36.5683 43.858L46.648 40.8107C46.8824 40.8107 47.1168 40.5763 47.1168 40.1074V29.7933C47.1168 29.5589 46.8824 29.3245 46.4136 29.3245Z" fill="white"/>
<path d="M63.2911 7.99298L41.4909 1.42946C37.7403 0.257401 33.7553 0.257401 29.7703 1.42946L8.20441 7.99298C3.28176 9.63387 0 14.0877 0 19.2447V54.4065C0 59.5635 3.28176 64.0174 8.20441 65.6582L30.0047 72.2218C33.7553 73.3938 37.7403 73.3938 41.7253 72.2218L63.5256 65.6582C68.4482 64.0174 71.73 59.5635 71.73 54.4065V19.2447C71.4955 14.0877 67.9794 9.63387 63.2911 7.99298ZM54.1491 43.6236C54.1491 45.03 53.2114 46.2021 52.0394 46.6709L37.5059 51.1247C36.3338 51.5935 34.9273 51.5935 33.7553 51.1247L24.3788 48.3118C24.3788 48.3118 24.1444 48.3118 24.1444 48.5462V55.5785C24.1444 56.2818 23.4412 56.7506 22.7379 56.5162L17.8153 55.1097C17.3465 54.8753 17.112 54.4065 17.112 53.9377V25.3394C17.112 22.7609 19.6906 20.8856 22.2691 21.5889L34.9273 25.3394C35.3962 25.5739 35.865 25.3394 36.0994 25.3394L48.7576 21.5889C51.3361 20.6512 54.1491 22.7609 54.1491 25.5739V43.6236V43.6236Z" fill="white"/>
</svg>
