<svg xmlns="http://www.w3.org/2000/svg" viewBox="366 178 322 656"><!-- The Mezzo mark: the app icon's three segments (app/assets/icon-src/seg_*.svg) flattened into one image, cropped to the mark. --><defs><path id="mark" d="M434.30 152.80 c-0.90 1.50 -2.40 3.90 -3.40 5.40 c-1.10 1.50 -1.90 3.00 -1.90 3.30 c0.00 0.50 -2.00 3.40 -9.40 14.00 c-1.20 1.60 -2.10 3.30 -2.10 3.70 c0.00 0.40 -1.70 3.00 -3.70 5.70 c-2.10 2.80 -3.80 5.40 -3.80 5.90 c0.00 0.40 -1.10 2.30 -2.50 4.20 c-3.30 4.50 -3.20 6.50 0.80 8.10 c1.70 0.70 5.30 2.70 7.80 4.50 c2.50 1.70 5.90 3.90 7.50 4.70 c3.40 1.80 19.00 17.30 22.80 22.70 c5.40 7.60 13.50 20.80 16.50 27.00 c1.80 3.60 4.10 8.20 5.20 10.20 c1.00 2.00 1.90 4.30 1.90 5.00 c0.00 0.70 0.60 2.40 1.30 3.80 c1.20 2.30 4.10 11.20 8.20 24.80 c4.40 14.80 6.30 50.30 3.60 67.70 c-1.30 8.00 -3.90 17.20 -6.70 23.20 c-0.70 1.70 -1.40 3.40 -1.40 3.80 c0.00 0.80 -4.70 11.40 -6.00 13.50 c-0.60 0.80 -1.60 3.00 -2.50 4.90 c-0.80 1.80 -3.60 6.10 -6.30 9.50 c-2.60 3.30 -5.50 7.30 -6.50 8.80 c-4.40 7.00 -36.80 38.50 -41.70 40.60 c-0.80 0.30 -3.40 2.00 -5.80 3.70 c-8.30 5.80 -23.60 13.80 -41.20 21.50 c-1.40 0.60 -3.50 1.70 -4.70 2.40 c-2.80 1.60 -2.40 2.10 6.70 9.70 c3.50 3.00 11.00 9.40 16.60 14.40 c5.60 4.90 12.80 11.30 16.00 14.20 c11.20 9.70 44.90 39.60 54.00 47.70 c5.00 4.40 13.60 12.10 19.20 17.00 c12.70 11.00 12.50 11.60 -2.40 11.60 c-5.80 -0.00 -11.20 0.40 -12.20 0.90 c-0.90 0.50 -6.20 1.40 -11.60 2.10 c-5.50 0.60 -10.40 1.40 -11.00 1.90 c-0.60 0.40 -4.00 1.40 -7.60 2.00 c-3.50 0.70 -7.30 1.90 -8.40 2.70 c-1.10 0.80 -2.70 1.40 -3.60 1.40 c-1.40 -0.00 -11.20 4.70 -17.00 8.00 c-7.20 4.20 -17.60 13.10 -20.50 17.40 c-1.10 1.60 -2.80 4.10 -3.70 5.50 c-3.60 5.40 -7.90 15.30 -8.50 19.60 c-0.30 2.50 -1.00 4.80 -1.40 5.10 c-1.20 0.70 -1.10 20.70 0.00 25.30 c0.50 2.00 1.50 6.30 2.10 9.60 c0.70 3.30 1.60 6.40 2.00 7.00 c0.40 0.50 1.10 2.50 1.50 4.40 c0.40 1.80 1.80 5.50 3.10 8.10 c1.30 2.60 2.40 5.00 2.40 5.30 c0.00 0.80 6.60 12.10 10.60 18.40 c15.10 23.10 49.70 54.80 80.20 73.60 c19.50 11.90 43.30 24.70 45.90 24.70 c0.40 -0.00 2.90 -2.80 5.50 -6.30 c2.60 -3.40 7.40 -9.50 10.80 -13.60 c3.30 -4.10 6.00 -7.90 6.00 -8.50 c0.00 -0.60 -1.90 -3.60 -4.30 -6.60 c-2.30 -3.00 -5.50 -7.50 -7.10 -10.00 c-1.60 -2.50 -3.70 -5.60 -4.60 -7.00 c-0.90 -1.40 -2.80 -4.80 -4.20 -7.60 c-3.30 -6.40 -6.80 -12.60 -7.80 -13.90 c-0.40 -0.60 -1.30 -2.60 -1.90 -4.60 c-0.60 -2.00 -2.00 -5.30 -3.10 -7.40 c-1.10 -2.20 -2.00 -4.60 -2.00 -5.50 c0.00 -0.90 -0.40 -2.00 -1.00 -2.60 c-0.50 -0.50 -1.60 -4.70 -2.50 -9.40 c-0.90 -4.70 -1.90 -9.80 -2.20 -11.30 c-0.30 -1.50 0.20 -5.40 1.20 -8.50 c2.40 -7.70 9.00 -14.10 18.30 -17.60 c7.20 -2.70 23.80 -5.60 32.40 -5.60 c12.40 -0.00 48.60 5.80 56.30 9.00 c1.10 0.50 4.50 1.40 7.50 2.10 c3.00 0.70 6.20 1.60 7.00 2.00 c0.80 0.40 5.80 2.20 11.00 3.90 c5.20 1.70 10.20 3.50 11.10 4.00 c0.80 0.40 5.10 2.20 9.50 3.90 c4.30 1.80 10.80 4.60 14.30 6.40 l6.30 3.20 l5.50 -6.00 c2.90 -3.30 8.70 -10.10 12.70 -15.10 c4.10 -5.00 8.40 -9.70 9.60 -10.50 c1.70 -1.10 2.10 -2.00 1.60 -3.70 c-0.40 -1.20 -1.20 -2.20 -1.80 -2.20 c-0.60 -0.00 -3.30 -1.70 -6.10 -3.70 c-2.80 -2.10 -6.10 -4.50 -7.30 -5.30 c-8.80 -5.90 -15.80 -11.10 -21.40 -15.90 c-17.00 -14.60 -25.20 -22.20 -34.00 -31.00 c-9.60 -9.70 -31.10 -34.10 -32.00 -36.40 c-0.30 -0.70 -2.40 -3.70 -4.70 -6.80 c-2.40 -3.10 -4.30 -5.90 -4.30 -6.40 c0.00 -0.40 -2.40 -4.40 -5.40 -8.90 c-6.10 -9.20 -16.50 -29.90 -18.50 -36.60 c-0.70 -2.50 -1.70 -5.00 -2.10 -5.50 c-0.40 -0.60 -1.30 -3.50 -2.00 -6.50 c-0.70 -3.00 -1.60 -6.00 -2.10 -6.60 c-1.30 -1.60 -4.90 -31.50 -4.90 -40.70 c0.00 -7.70 2.90 -24.50 4.90 -29.20 c7.90 -17.50 14.20 -27.40 24.40 -38.20 c7.70 -8.10 25.80 -23.10 32.10 -26.60 c5.60 -3.20 7.20 -4.10 8.70 -5.40 c2.70 -2.00 29.70 -15.30 31.30 -15.30 c0.50 -0.00 2.20 -0.60 3.90 -1.40 c1.80 -0.80 7.00 -2.60 11.70 -4.10 c4.70 -1.50 11.10 -3.60 14.20 -4.60 c3.10 -1.00 7.50 -2.20 9.80 -2.50 c2.20 -0.40 4.30 -1.10 4.60 -1.60 c0.70 -1.00 -11.10 -12.00 -27.10 -25.30 c-2.70 -2.20 -8.00 -6.80 -11.70 -10.20 c-3.80 -3.50 -9.00 -7.90 -11.60 -10.00 c-2.60 -2.00 -5.60 -4.50 -6.70 -5.50 c-1.10 -0.90 -7.20 -6.30 -13.50 -11.90 c-6.30 -5.60 -13.50 -11.80 -16.00 -13.80 c-2.50 -2.00 -9.80 -8.30 -16.30 -14.10 c-6.60 -5.80 -12.90 -11.20 -14.20 -12.00 c-2.30 -1.50 -12.40 -10.00 -22.50 -19.00 c-5.50 -4.80 -21.90 -19.20 -30.00 -26.30 c-2.40 -2.00 -4.50 -3.70 -4.80 -3.70 c-0.30 -0.00 -2.10 -1.50 -4.10 -3.40 c-4.40 -4.10 -11.70 -10.50 -24.10 -21.10 c-5.10 -4.40 -11.90 -10.30 -15.00 -13.00 c-3.10 -2.80 -9.10 -7.90 -13.40 -11.50 c-4.40 -3.60 -11.80 -10.00 -16.50 -14.20 c-4.70 -4.30 -9.80 -8.20 -11.40 -8.70 c-2.40 -0.90 -2.90 -0.70 -4.40 1.70 Z"/><linearGradient id="ct-g" x1="392" y1="150" x2="648" y2="880" gradientUnits="userSpaceOnUse"><stop offset="0" stop-color="#41D3F8"/><stop offset="1" stop-color="#12B4F0"/></linearGradient><clipPath id="ct"><rect x="-200" y="120" width="1424" height="252" transform="rotate(-7 512 512)"/></clipPath><linearGradient id="cm-g" x1="392" y1="150" x2="648" y2="880" gradientUnits="userSpaceOnUse"><stop offset="0" stop-color="#04A2E2"/><stop offset="1" stop-color="#1E79D6"/></linearGradient><clipPath id="cm"><rect x="-200" y="360" width="1424" height="230" transform="rotate(-7 512 512)"/></clipPath><linearGradient id="cb-g" x1="392" y1="150" x2="648" y2="880" gradientUnits="userSpaceOnUse"><stop offset="0" stop-color="#2467D9"/><stop offset="1" stop-color="#0A4FC6"/></linearGradient><clipPath id="cb"><rect x="-200" y="578" width="1424" height="402" transform="rotate(-7 512 512)"/></clipPath></defs><g transform="translate(512 500) scale(0.90) translate(-512 -500)"><use href="#mark" clip-path="url(#ct)" fill="url(#ct-g)"/><use href="#mark" clip-path="url(#cm)" fill="url(#cm-g)"/><use href="#mark" clip-path="url(#cb)" fill="url(#cb-g)"/></g></svg>
